<mxfile host="app.diagrams.net" agent="Mozilla/5.0 (X11; Linux x86_64; rv:133.0) Gecko/20100101 Firefox/133.0" version="25.0.3">
  <diagram name="Page-1" id="3V8vz6xEhUbXwEFhNSxs">
    <mxGraphModel dx="1195" dy="1802" grid="1" gridSize="10" guides="1" tooltips="1" connect="1" arrows="1" fold="1" page="1" pageScale="1" pageWidth="827" pageHeight="1169" math="0" shadow="0">
      <root>
        <mxCell id="0" />
        <mxCell id="1" parent="0" />
        <mxCell id="BuL4cJ5vDAZep0cfOdnn-6" style="edgeStyle=orthogonalEdgeStyle;rounded=1;orthogonalLoop=1;jettySize=auto;html=1;curved=0;" edge="1" parent="1" source="BuL4cJ5vDAZep0cfOdnn-1" target="BuL4cJ5vDAZep0cfOdnn-3">
          <mxGeometry relative="1" as="geometry" />
        </mxCell>
        <mxCell id="BuL4cJ5vDAZep0cfOdnn-7" value="&lt;div&gt;Keyboard,&lt;/div&gt;&lt;div&gt;Mouse,&lt;/div&gt;&lt;div&gt;Touchpad,&lt;/div&gt;&lt;div&gt;Screen&lt;br&gt;&lt;/div&gt;" style="edgeLabel;html=1;align=center;verticalAlign=middle;resizable=0;points=[];" vertex="1" connectable="0" parent="BuL4cJ5vDAZep0cfOdnn-6">
          <mxGeometry x="0.0099" y="-1" relative="1" as="geometry">
            <mxPoint as="offset" />
          </mxGeometry>
        </mxCell>
        <mxCell id="BuL4cJ5vDAZep0cfOdnn-1" value="User" style="shape=umlActor;verticalLabelPosition=bottom;verticalAlign=top;html=1;" vertex="1" parent="1">
          <mxGeometry x="160" y="305" width="30" height="60" as="geometry" />
        </mxCell>
        <mxCell id="BuL4cJ5vDAZep0cfOdnn-2" value="LCMS Technical Context" style="shape=umlFrame;whiteSpace=wrap;html=1;pointerEvents=0;width=150;height=30;" vertex="1" parent="1">
          <mxGeometry x="20" y="-80" width="1660" height="950" as="geometry" />
        </mxCell>
        <mxCell id="BuL4cJ5vDAZep0cfOdnn-3" value="&lt;div&gt;&amp;lt;&amp;lt;device&amp;gt;&amp;gt;&lt;/div&gt;&lt;div&gt;User&#39;s Device&lt;/div&gt;" style="verticalAlign=top;align=left;spacingTop=8;spacingLeft=2;spacingRight=12;shape=cube;size=10;direction=south;fontStyle=4;html=1;whiteSpace=wrap;" vertex="1" parent="1">
          <mxGeometry x="290" y="150" width="430" height="370" as="geometry" />
        </mxCell>
        <mxCell id="BuL4cJ5vDAZep0cfOdnn-5" value="&lt;div&gt;&amp;lt;&amp;lt;executionEnviroment&amp;gt;&amp;gt;&lt;/div&gt;&lt;div&gt;Browser&lt;br&gt;&lt;/div&gt;" style="verticalAlign=top;align=left;spacingTop=8;spacingLeft=2;spacingRight=12;shape=cube;size=10;direction=south;fontStyle=4;html=1;whiteSpace=wrap;" vertex="1" parent="1">
          <mxGeometry x="300" y="200" width="400" height="310" as="geometry" />
        </mxCell>
        <mxCell id="BuL4cJ5vDAZep0cfOdnn-8" value="&lt;div&gt;&amp;lt;&amp;lt;artifact&amp;gt;&amp;gt;&lt;/div&gt;&lt;div&gt;StudyCourse Frontend&lt;br&gt;&lt;/div&gt;" style="verticalAlign=top;align=left;spacingTop=8;spacingLeft=2;spacingRight=12;shape=cube;size=10;direction=south;fontStyle=4;html=1;whiteSpace=wrap;" vertex="1" parent="1">
          <mxGeometry x="310" y="245" width="370" height="255" as="geometry" />
        </mxCell>
        <mxCell id="BuL4cJ5vDAZep0cfOdnn-9" value="«component»&lt;br&gt;&lt;b&gt;shared/ (services)&lt;/b&gt;" style="html=1;dropTarget=0;whiteSpace=wrap;" vertex="1" parent="1">
          <mxGeometry x="510" y="410" width="150" height="70" as="geometry" />
        </mxCell>
        <mxCell id="BuL4cJ5vDAZep0cfOdnn-10" value="" style="shape=module;jettyWidth=8;jettyHeight=4;" vertex="1" parent="BuL4cJ5vDAZep0cfOdnn-9">
          <mxGeometry x="1" width="20" height="20" relative="1" as="geometry">
            <mxPoint x="-27" y="7" as="offset" />
          </mxGeometry>
        </mxCell>
        <mxCell id="BuL4cJ5vDAZep0cfOdnn-13" style="edgeStyle=orthogonalEdgeStyle;rounded=0;orthogonalLoop=1;jettySize=auto;html=1;entryX=0;entryY=0.5;entryDx=0;entryDy=0;dashed=1;" edge="1" parent="1" source="BuL4cJ5vDAZep0cfOdnn-11" target="BuL4cJ5vDAZep0cfOdnn-9">
          <mxGeometry relative="1" as="geometry" />
        </mxCell>
        <mxCell id="BuL4cJ5vDAZep0cfOdnn-11" value="&lt;div&gt;«component»&lt;/div&gt;&lt;b&gt;app/ (UI)&lt;/b&gt; " style="html=1;dropTarget=0;whiteSpace=wrap;" vertex="1" parent="1">
          <mxGeometry x="320" y="305" width="150" height="70" as="geometry" />
        </mxCell>
        <mxCell id="BuL4cJ5vDAZep0cfOdnn-12" value="" style="shape=module;jettyWidth=8;jettyHeight=4;" vertex="1" parent="BuL4cJ5vDAZep0cfOdnn-11">
          <mxGeometry x="1" width="20" height="20" relative="1" as="geometry">
            <mxPoint x="-27" y="7" as="offset" />
          </mxGeometry>
        </mxCell>
        <mxCell id="BuL4cJ5vDAZep0cfOdnn-14" value="&lt;div&gt;&amp;lt;&amp;lt;device&amp;gt;&amp;gt;&lt;/div&gt;&lt;div&gt;Backend Server&lt;br&gt;&lt;/div&gt;" style="verticalAlign=top;align=left;spacingTop=8;spacingLeft=2;spacingRight=12;shape=cube;size=10;direction=south;fontStyle=4;html=1;whiteSpace=wrap;" vertex="1" parent="1">
          <mxGeometry x="800" y="150" width="820" height="680" as="geometry" />
        </mxCell>
        <mxCell id="BuL4cJ5vDAZep0cfOdnn-15" value="&lt;div&gt;&amp;lt;&amp;lt;container&amp;gt;&amp;gt;&lt;/div&gt;&lt;div&gt;Podman Container&lt;br&gt;&lt;/div&gt;" style="verticalAlign=top;align=left;spacingTop=8;spacingLeft=2;spacingRight=12;shape=cube;size=10;direction=south;fontStyle=4;html=1;whiteSpace=wrap;" vertex="1" parent="1">
          <mxGeometry x="810" y="200" width="790" height="620" as="geometry" />
        </mxCell>
        <mxCell id="BuL4cJ5vDAZep0cfOdnn-16" value="&lt;div&gt;&amp;lt;&amp;lt;artifact&amp;gt;&amp;gt;&lt;/div&gt;&lt;div&gt;StudyBase&lt;br&gt;&lt;/div&gt;" style="verticalAlign=top;align=left;spacingTop=8;spacingLeft=2;spacingRight=12;shape=cube;size=10;direction=south;fontStyle=4;html=1;whiteSpace=wrap;" vertex="1" parent="1">
          <mxGeometry x="820" y="245" width="760" height="565" as="geometry" />
        </mxCell>
        <mxCell id="BuL4cJ5vDAZep0cfOdnn-58" style="edgeStyle=orthogonalEdgeStyle;rounded=0;orthogonalLoop=1;jettySize=auto;html=1;dashed=1;" edge="1" parent="1" source="BuL4cJ5vDAZep0cfOdnn-17" target="BuL4cJ5vDAZep0cfOdnn-57">
          <mxGeometry relative="1" as="geometry" />
        </mxCell>
        <mxCell id="BuL4cJ5vDAZep0cfOdnn-17" value="Prisma Client" style="shape=module;align=left;spacingLeft=20;align=center;verticalAlign=top;whiteSpace=wrap;html=1;" vertex="1" parent="1">
          <mxGeometry x="1010" y="745" width="100" height="50" as="geometry" />
        </mxCell>
        <mxCell id="BuL4cJ5vDAZep0cfOdnn-29" value="" style="group" vertex="1" connectable="0" parent="1">
          <mxGeometry x="850" y="710" width="130" height="90" as="geometry" />
        </mxCell>
        <mxCell id="BuL4cJ5vDAZep0cfOdnn-22" value="&lt;p style=&quot;margin:0px;margin-top:6px;text-align:center;&quot;&gt;&lt;b&gt;prisma&lt;/b&gt;&lt;/p&gt;&lt;hr size=&quot;1&quot; style=&quot;border-style:solid;&quot;&gt;" style="align=left;overflow=fill;html=1;dropTarget=0;whiteSpace=wrap;" vertex="1" parent="BuL4cJ5vDAZep0cfOdnn-29">
          <mxGeometry width="130" height="90" as="geometry" />
        </mxCell>
        <mxCell id="BuL4cJ5vDAZep0cfOdnn-23" value="" style="shape=component;jettyWidth=8;jettyHeight=4;" vertex="1" parent="BuL4cJ5vDAZep0cfOdnn-22">
          <mxGeometry x="1" width="20" height="20" relative="1" as="geometry">
            <mxPoint x="-24" y="4" as="offset" />
          </mxGeometry>
        </mxCell>
        <mxCell id="BuL4cJ5vDAZep0cfOdnn-27" value="&amp;lt;&amp;lt;DB Schema&amp;gt;&amp;gt;&lt;br&gt;&lt;div&gt;schema.prisma&lt;/div&gt;" style="html=1;whiteSpace=wrap;" vertex="1" parent="BuL4cJ5vDAZep0cfOdnn-29">
          <mxGeometry x="12.5" y="40" width="105" height="40" as="geometry" />
        </mxCell>
        <mxCell id="BuL4cJ5vDAZep0cfOdnn-28" style="edgeStyle=orthogonalEdgeStyle;rounded=0;orthogonalLoop=1;jettySize=auto;html=1;dashed=1;" edge="1" parent="1" source="BuL4cJ5vDAZep0cfOdnn-27" target="BuL4cJ5vDAZep0cfOdnn-17">
          <mxGeometry relative="1" as="geometry" />
        </mxCell>
        <mxCell id="BuL4cJ5vDAZep0cfOdnn-57" value="Prisma Module" style="shape=module;align=left;spacingLeft=20;align=center;verticalAlign=top;whiteSpace=wrap;html=1;" vertex="1" parent="1">
          <mxGeometry x="1150" y="745" width="100" height="50" as="geometry" />
        </mxCell>
        <mxCell id="BuL4cJ5vDAZep0cfOdnn-61" value="" style="group" vertex="1" connectable="0" parent="1">
          <mxGeometry x="910" y="280" width="600" height="200" as="geometry" />
        </mxCell>
        <mxCell id="BuL4cJ5vDAZep0cfOdnn-31" value="LCMS Module" style="shape=module;align=left;spacingLeft=20;align=center;verticalAlign=top;whiteSpace=wrap;html=1;" vertex="1" parent="BuL4cJ5vDAZep0cfOdnn-61">
          <mxGeometry width="600" height="200" as="geometry" />
        </mxCell>
        <mxCell id="BuL4cJ5vDAZep0cfOdnn-40" value="" style="group" vertex="1" connectable="0" parent="BuL4cJ5vDAZep0cfOdnn-61">
          <mxGeometry x="30" y="27.5" width="120" height="150" as="geometry" />
        </mxCell>
        <mxCell id="BuL4cJ5vDAZep0cfOdnn-32" value="LearningUnit Module" style="shape=module;align=left;spacingLeft=20;align=center;verticalAlign=top;whiteSpace=wrap;html=1;" vertex="1" parent="BuL4cJ5vDAZep0cfOdnn-40">
          <mxGeometry width="120" height="150" as="geometry" />
        </mxCell>
        <mxCell id="BuL4cJ5vDAZep0cfOdnn-37" value="&lt;div&gt;«component»&lt;/div&gt;&lt;div&gt;&lt;b&gt;Controller&lt;/b&gt;&lt;/div&gt;" style="html=1;whiteSpace=wrap;" vertex="1" parent="BuL4cJ5vDAZep0cfOdnn-40">
          <mxGeometry x="30" y="40" width="80" height="35" as="geometry" />
        </mxCell>
        <mxCell id="BuL4cJ5vDAZep0cfOdnn-38" value="&lt;div&gt;«component»&lt;/div&gt;&lt;div&gt;&lt;b&gt;Service&lt;/b&gt;&lt;/div&gt;" style="html=1;whiteSpace=wrap;" vertex="1" parent="BuL4cJ5vDAZep0cfOdnn-40">
          <mxGeometry x="30" y="102.5" width="80" height="35" as="geometry" />
        </mxCell>
        <mxCell id="BuL4cJ5vDAZep0cfOdnn-39" style="edgeStyle=orthogonalEdgeStyle;rounded=0;orthogonalLoop=1;jettySize=auto;html=1;entryX=0.5;entryY=1;entryDx=0;entryDy=0;dashed=1;" edge="1" parent="BuL4cJ5vDAZep0cfOdnn-40" source="BuL4cJ5vDAZep0cfOdnn-38" target="BuL4cJ5vDAZep0cfOdnn-37">
          <mxGeometry relative="1" as="geometry" />
        </mxCell>
        <mxCell id="BuL4cJ5vDAZep0cfOdnn-41" value="" style="group" vertex="1" connectable="0" parent="BuL4cJ5vDAZep0cfOdnn-61">
          <mxGeometry x="170" y="27.5" width="120" height="150" as="geometry" />
        </mxCell>
        <mxCell id="BuL4cJ5vDAZep0cfOdnn-42" value="Competency Module" style="shape=module;align=left;spacingLeft=20;align=center;verticalAlign=top;whiteSpace=wrap;html=1;" vertex="1" parent="BuL4cJ5vDAZep0cfOdnn-41">
          <mxGeometry width="120" height="150" as="geometry" />
        </mxCell>
        <mxCell id="BuL4cJ5vDAZep0cfOdnn-43" value="&lt;div&gt;«component»&lt;/div&gt;&lt;div&gt;&lt;b&gt;Controller&lt;/b&gt;&lt;/div&gt;" style="html=1;whiteSpace=wrap;" vertex="1" parent="BuL4cJ5vDAZep0cfOdnn-41">
          <mxGeometry x="30" y="40" width="80" height="35" as="geometry" />
        </mxCell>
        <mxCell id="BuL4cJ5vDAZep0cfOdnn-44" value="&lt;div&gt;«component»&lt;/div&gt;&lt;div&gt;&lt;b&gt;Service&lt;/b&gt;&lt;/div&gt;" style="html=1;whiteSpace=wrap;" vertex="1" parent="BuL4cJ5vDAZep0cfOdnn-41">
          <mxGeometry x="30" y="102.5" width="80" height="35" as="geometry" />
        </mxCell>
        <mxCell id="BuL4cJ5vDAZep0cfOdnn-45" style="edgeStyle=orthogonalEdgeStyle;rounded=0;orthogonalLoop=1;jettySize=auto;html=1;entryX=0.5;entryY=1;entryDx=0;entryDy=0;dashed=1;" edge="1" parent="BuL4cJ5vDAZep0cfOdnn-41" source="BuL4cJ5vDAZep0cfOdnn-44" target="BuL4cJ5vDAZep0cfOdnn-43">
          <mxGeometry relative="1" as="geometry" />
        </mxCell>
        <mxCell id="BuL4cJ5vDAZep0cfOdnn-46" value="" style="group" vertex="1" connectable="0" parent="BuL4cJ5vDAZep0cfOdnn-61">
          <mxGeometry x="310" y="27.5" width="120" height="150" as="geometry" />
        </mxCell>
        <mxCell id="BuL4cJ5vDAZep0cfOdnn-47" value="Material Module" style="shape=module;align=left;spacingLeft=20;align=center;verticalAlign=top;whiteSpace=wrap;html=1;" vertex="1" parent="BuL4cJ5vDAZep0cfOdnn-46">
          <mxGeometry width="120" height="150" as="geometry" />
        </mxCell>
        <mxCell id="BuL4cJ5vDAZep0cfOdnn-48" value="&lt;div&gt;«component»&lt;/div&gt;&lt;div&gt;&lt;b&gt;Controller&lt;/b&gt;&lt;/div&gt;" style="html=1;whiteSpace=wrap;" vertex="1" parent="BuL4cJ5vDAZep0cfOdnn-46">
          <mxGeometry x="30" y="40" width="80" height="35" as="geometry" />
        </mxCell>
        <mxCell id="BuL4cJ5vDAZep0cfOdnn-49" value="&lt;div&gt;«component»&lt;/div&gt;&lt;div&gt;&lt;b&gt;Service&lt;/b&gt;&lt;/div&gt;" style="html=1;whiteSpace=wrap;" vertex="1" parent="BuL4cJ5vDAZep0cfOdnn-46">
          <mxGeometry x="30" y="102.5" width="80" height="35" as="geometry" />
        </mxCell>
        <mxCell id="BuL4cJ5vDAZep0cfOdnn-50" style="edgeStyle=orthogonalEdgeStyle;rounded=0;orthogonalLoop=1;jettySize=auto;html=1;entryX=0.5;entryY=1;entryDx=0;entryDy=0;dashed=1;" edge="1" parent="BuL4cJ5vDAZep0cfOdnn-46" source="BuL4cJ5vDAZep0cfOdnn-49" target="BuL4cJ5vDAZep0cfOdnn-48">
          <mxGeometry relative="1" as="geometry" />
        </mxCell>
        <mxCell id="BuL4cJ5vDAZep0cfOdnn-51" value="" style="group" vertex="1" connectable="0" parent="BuL4cJ5vDAZep0cfOdnn-61">
          <mxGeometry x="470" y="27.5" width="120" height="150" as="geometry" />
        </mxCell>
        <mxCell id="BuL4cJ5vDAZep0cfOdnn-52" value="Learning Material&amp;nbsp; Module" style="shape=module;align=left;spacingLeft=20;align=center;verticalAlign=top;whiteSpace=wrap;html=1;" vertex="1" parent="BuL4cJ5vDAZep0cfOdnn-51">
          <mxGeometry width="120" height="150" as="geometry" />
        </mxCell>
        <mxCell id="BuL4cJ5vDAZep0cfOdnn-53" value="&lt;div&gt;«component»&lt;/div&gt;&lt;div&gt;&lt;b&gt;Controller&lt;/b&gt;&lt;/div&gt;" style="html=1;whiteSpace=wrap;" vertex="1" parent="BuL4cJ5vDAZep0cfOdnn-51">
          <mxGeometry x="30" y="40" width="80" height="35" as="geometry" />
        </mxCell>
        <mxCell id="BuL4cJ5vDAZep0cfOdnn-54" value="&lt;div&gt;«component»&lt;/div&gt;&lt;div&gt;&lt;b&gt;Service&lt;/b&gt;&lt;/div&gt;" style="html=1;whiteSpace=wrap;" vertex="1" parent="BuL4cJ5vDAZep0cfOdnn-51">
          <mxGeometry x="30" y="102.5" width="80" height="35" as="geometry" />
        </mxCell>
        <mxCell id="BuL4cJ5vDAZep0cfOdnn-55" style="edgeStyle=orthogonalEdgeStyle;rounded=0;orthogonalLoop=1;jettySize=auto;html=1;entryX=0.5;entryY=1;entryDx=0;entryDy=0;dashed=1;" edge="1" parent="BuL4cJ5vDAZep0cfOdnn-51" source="BuL4cJ5vDAZep0cfOdnn-54" target="BuL4cJ5vDAZep0cfOdnn-53">
          <mxGeometry relative="1" as="geometry" />
        </mxCell>
        <mxCell id="BuL4cJ5vDAZep0cfOdnn-60" style="edgeStyle=orthogonalEdgeStyle;rounded=0;orthogonalLoop=1;jettySize=auto;html=1;entryX=0;entryY=0.5;entryDx=10;entryDy=0;entryPerimeter=0;dashed=1;" edge="1" parent="BuL4cJ5vDAZep0cfOdnn-61" source="BuL4cJ5vDAZep0cfOdnn-47" target="BuL4cJ5vDAZep0cfOdnn-52">
          <mxGeometry relative="1" as="geometry" />
        </mxCell>
        <mxCell id="BuL4cJ5vDAZep0cfOdnn-67" style="edgeStyle=orthogonalEdgeStyle;rounded=0;orthogonalLoop=1;jettySize=auto;html=1;dashed=1;" edge="1" parent="1" source="BuL4cJ5vDAZep0cfOdnn-62" target="BuL4cJ5vDAZep0cfOdnn-52">
          <mxGeometry relative="1" as="geometry">
            <Array as="points">
              <mxPoint x="1340" y="650" />
              <mxPoint x="1460" y="650" />
            </Array>
          </mxGeometry>
        </mxCell>
        <mxCell id="BuL4cJ5vDAZep0cfOdnn-69" style="edgeStyle=orthogonalEdgeStyle;rounded=0;orthogonalLoop=1;jettySize=auto;html=1;dashed=1;" edge="1" parent="1" source="BuL4cJ5vDAZep0cfOdnn-62" target="BuL4cJ5vDAZep0cfOdnn-47">
          <mxGeometry relative="1" as="geometry">
            <Array as="points">
              <mxPoint x="1340" y="650" />
              <mxPoint x="1300" y="650" />
            </Array>
          </mxGeometry>
        </mxCell>
        <mxCell id="BuL4cJ5vDAZep0cfOdnn-70" style="edgeStyle=orthogonalEdgeStyle;rounded=0;orthogonalLoop=1;jettySize=auto;html=1;dashed=1;" edge="1" parent="1" source="BuL4cJ5vDAZep0cfOdnn-62" target="BuL4cJ5vDAZep0cfOdnn-32">
          <mxGeometry relative="1" as="geometry">
            <Array as="points">
              <mxPoint x="1340" y="650" />
              <mxPoint x="980" y="650" />
            </Array>
          </mxGeometry>
        </mxCell>
        <mxCell id="BuL4cJ5vDAZep0cfOdnn-62" value="Config Module" style="shape=module;align=left;spacingLeft=20;align=center;verticalAlign=top;whiteSpace=wrap;html=1;" vertex="1" parent="1">
          <mxGeometry x="1290" y="745" width="100" height="50" as="geometry" />
        </mxCell>
        <mxCell id="BuL4cJ5vDAZep0cfOdnn-65" style="edgeStyle=orthogonalEdgeStyle;rounded=0;orthogonalLoop=1;jettySize=auto;html=1;dashed=1;" edge="1" parent="1" source="BuL4cJ5vDAZep0cfOdnn-57" target="BuL4cJ5vDAZep0cfOdnn-47">
          <mxGeometry relative="1" as="geometry">
            <Array as="points">
              <mxPoint x="1200" y="620" />
              <mxPoint x="1280" y="620" />
            </Array>
          </mxGeometry>
        </mxCell>
        <mxCell id="BuL4cJ5vDAZep0cfOdnn-66" style="edgeStyle=orthogonalEdgeStyle;rounded=0;orthogonalLoop=1;jettySize=auto;html=1;dashed=1;" edge="1" parent="1" source="BuL4cJ5vDAZep0cfOdnn-57" target="BuL4cJ5vDAZep0cfOdnn-52">
          <mxGeometry relative="1" as="geometry">
            <Array as="points">
              <mxPoint x="1200" y="620" />
              <mxPoint x="1440" y="620" />
            </Array>
          </mxGeometry>
        </mxCell>
        <mxCell id="BuL4cJ5vDAZep0cfOdnn-64" style="edgeStyle=orthogonalEdgeStyle;rounded=0;orthogonalLoop=1;jettySize=auto;html=1;dashed=1;" edge="1" parent="1" source="BuL4cJ5vDAZep0cfOdnn-57" target="BuL4cJ5vDAZep0cfOdnn-42">
          <mxGeometry relative="1" as="geometry">
            <Array as="points">
              <mxPoint x="1200" y="620" />
              <mxPoint x="1140" y="620" />
            </Array>
          </mxGeometry>
        </mxCell>
        <mxCell id="BuL4cJ5vDAZep0cfOdnn-63" style="edgeStyle=orthogonalEdgeStyle;rounded=0;orthogonalLoop=1;jettySize=auto;html=1;dashed=1;" edge="1" parent="1" source="BuL4cJ5vDAZep0cfOdnn-57" target="BuL4cJ5vDAZep0cfOdnn-32">
          <mxGeometry relative="1" as="geometry">
            <Array as="points">
              <mxPoint x="1200" y="620" />
              <mxPoint x="1000" y="620" />
            </Array>
          </mxGeometry>
        </mxCell>
      </root>
    </mxGraphModel>
  </diagram>
</mxfile>
